<?xml version="1.0" encoding="UTF-8" standalone="no"?>
<!DOCTYPE svg PUBLIC "-//W3C//DTD SVG 1.1//EN"
 "http://www.w3.org/Graphics/SVG/1.1/DTD/svg11.dtd">
<!-- Generated by graphviz version 2.40.1 (20161225.0304)
 -->
<!-- Title: dependencies Pages: 1 -->
<svg width="1334pt" height="284pt"
 viewBox="0.00 0.00 1334.00 284.00" xmlns="http://www.w3.org/2000/svg" xmlns:xlink="http://www.w3.org/1999/xlink">
<g id="graph0" class="graph" transform="scale(1 1) rotate(0) translate(4 280)">
<title>dependencies</title>
<polygon fill="#ffffff" stroke="transparent" points="-4,4 -4,-280 1330,-280 1330,4 -4,4"/>
<text text-anchor="start" x="642.0091" y="-42.4" font-family="sans-serif" font-weight="bold" font-size="14.00" fill="#000000">Legend</text>
<polygon fill="#ffffb3" stroke="transparent" points="429,-10 429,-30 449,-30 449,-10 429,-10"/>
<text text-anchor="start" x="452.629" y="-15.4" font-family="sans-serif" font-size="14.00" fill="#000000"> &#160;Declarations</text>
<polygon fill="#8dd3c7" stroke="transparent" points="542,-10 542,-30 562,-30 562,-10 542,-10"/>
<text text-anchor="start" x="565.7251" y="-15.4" font-family="sans-serif" font-size="14.00" fill="#000000"> &#160;Module</text>
<polygon fill="#80b1d3" stroke="transparent" points="628,-10 628,-30 648,-30 648,-10 628,-10"/>
<text text-anchor="start" x="651.7812" y="-15.4" font-family="sans-serif" font-size="14.00" fill="#000000"> &#160;Bootstrap</text>
<polygon fill="#fdb462" stroke="transparent" points="725,-10 725,-30 745,-30 745,-10 725,-10"/>
<text text-anchor="start" x="748.6732" y="-15.4" font-family="sans-serif" font-size="14.00" fill="#000000"> &#160;Providers</text>
<polygon fill="#fb8072" stroke="transparent" points="821,-10 821,-30 841,-30 841,-10 821,-10"/>
<text text-anchor="start" x="844.7258" y="-15.4" font-family="sans-serif" font-size="14.00" fill="#000000"> &#160;Exports</text>
<g id="clust1" class="cluster">
<title>cluster_NgxAmapModule</title>
<polygon fill="none" stroke="#000000" stroke-dasharray="1,5" points="8,-70 8,-268 1318,-268 1318,-70 8,-70"/>
</g>
<g id="clust2" class="cluster">
<title>cluster_NgxAmapModule_declarations</title>
<polygon fill="none" stroke="#000000" points="28,-78 28,-130 1297,-130 1297,-78 28,-78"/>
</g>
<g id="clust11" class="cluster">
<title>cluster_NgxAmapModule_exports</title>
<polygon fill="none" stroke="#000000" points="16,-208 16,-260 1310,-260 1310,-208 16,-208"/>
</g>
<!-- NgxAmapComponent -->
<g id="node1" class="node">
<title>NgxAmapComponent</title>
<polygon fill="#ffffb3" stroke="#000000" points="1288.6512,-122 1149.3488,-122 1149.3488,-86 1288.6512,-86 1288.6512,-122"/>
<text text-anchor="middle" x="1219" y="-99.8" font-family="Times,serif" font-size="14.00" fill="#000000">NgxAmapComponent</text>
</g>
<!-- NgxAmapModule -->
<g id="node8" class="node">
<title>NgxAmapModule</title>
<polygon fill="#8dd3c7" stroke="#000000" points="748.8683,-187 745.8683,-191 724.8683,-191 721.8683,-187 631.1317,-187 631.1317,-151 748.8683,-151 748.8683,-187"/>
<text text-anchor="middle" x="690" y="-164.8" font-family="Times,serif" font-size="14.00" fill="#000000">NgxAmapModule</text>
</g>
<!-- NgxAmapComponent&#45;&gt;NgxAmapModule -->
<g id="edge1" class="edge">
<title>NgxAmapComponent&#45;&gt;NgxAmapModule</title>
<path fill="none" stroke="#000000" d="M1153.7996,-122.2222C1153.7996,-140.8285 1153.7996,-167 1153.7996,-167 1153.7996,-167 759.2116,-167 759.2116,-167"/>
<polygon fill="#000000" stroke="#000000" points="759.2117,-163.5001 749.2116,-167 759.2116,-170.5001 759.2117,-163.5001"/>
</g>
<!-- AmapMarkerDirective -->
<g id="node2" class="node">
<title>AmapMarkerDirective</title>
<polygon fill="#ffffb3" stroke="#000000" points="1130.9904,-122 987.0096,-122 987.0096,-86 1130.9904,-86 1130.9904,-122"/>
<text text-anchor="middle" x="1059" y="-99.8" font-family="Times,serif" font-size="14.00" fill="#000000">AmapMarkerDirective</text>
</g>
<!-- AmapMarkerDirective&#45;&gt;NgxAmapModule -->
<g id="edge2" class="edge">
<title>AmapMarkerDirective&#45;&gt;NgxAmapModule</title>
<path fill="none" stroke="#000000" d="M1084.9983,-122.0336C1084.9983,-139.0597 1084.9983,-162 1084.9983,-162 1084.9983,-162 759.1352,-162 759.1352,-162"/>
<polygon fill="#000000" stroke="#000000" points="759.1353,-158.5001 749.1352,-162 759.1352,-165.5001 759.1353,-158.5001"/>
</g>
<!-- AmapInfoWindowComponent -->
<g id="node3" class="node">
<title>AmapInfoWindowComponent</title>
<polygon fill="#ffffb3" stroke="#000000" points="969.5772,-122 782.4228,-122 782.4228,-86 969.5772,-86 969.5772,-122"/>
<text text-anchor="middle" x="876" y="-99.8" font-family="Times,serif" font-size="14.00" fill="#000000">AmapInfoWindowComponent</text>
</g>
<!-- AmapInfoWindowComponent&#45;&gt;NgxAmapModule -->
<g id="edge3" class="edge">
<title>AmapInfoWindowComponent&#45;&gt;NgxAmapModule</title>
<path fill="none" stroke="#000000" d="M907.9295,-122.2396C907.9295,-137.5706 907.9295,-157 907.9295,-157 907.9295,-157 758.9749,-157 758.9749,-157"/>
<polygon fill="#000000" stroke="#000000" points="758.9749,-153.5001 748.9749,-157 758.9748,-160.5001 758.9749,-153.5001"/>
</g>
<!-- AmapPolylineDirective -->
<g id="node4" class="node">
<title>AmapPolylineDirective</title>
<polygon fill="#ffffb3" stroke="#000000" points="764.4636,-122 615.5364,-122 615.5364,-86 764.4636,-86 764.4636,-122"/>
<text text-anchor="middle" x="690" y="-99.8" font-family="Times,serif" font-size="14.00" fill="#000000">AmapPolylineDirective</text>
</g>
<!-- AmapPolylineDirective&#45;&gt;NgxAmapModule -->
<g id="edge4" class="edge">
<title>AmapPolylineDirective&#45;&gt;NgxAmapModule</title>
<path fill="none" stroke="#000000" d="M690,-122.1061C690,-122.1061 690,-140.991 690,-140.991"/>
<polygon fill="#000000" stroke="#000000" points="686.5001,-140.9909 690,-150.991 693.5001,-140.991 686.5001,-140.9909"/>
</g>
<!-- AmapToolBarDirective -->
<g id="node5" class="node">
<title>AmapToolBarDirective</title>
<polygon fill="#ffffb3" stroke="#000000" points="597.4496,-122 448.5504,-122 448.5504,-86 597.4496,-86 597.4496,-122"/>
<text text-anchor="middle" x="523" y="-99.8" font-family="Times,serif" font-size="14.00" fill="#000000">AmapToolBarDirective</text>
</g>
<!-- AmapToolBarDirective&#45;&gt;NgxAmapModule -->
<g id="edge5" class="edge">
<title>AmapToolBarDirective&#45;&gt;NgxAmapModule</title>
<path fill="none" stroke="#000000" d="M546.9916,-122.2396C546.9916,-137.5706 546.9916,-157 546.9916,-157 546.9916,-157 621.0074,-157 621.0074,-157"/>
<polygon fill="#000000" stroke="#000000" points="621.0074,-160.5001 631.0074,-157 621.0073,-153.5001 621.0074,-160.5001"/>
</g>
<!-- AmapMarkerClustererDirective -->
<g id="node6" class="node">
<title>AmapMarkerClustererDirective</title>
<polygon fill="#ffffb3" stroke="#000000" points="430.3025,-122 235.6975,-122 235.6975,-86 430.3025,-86 430.3025,-122"/>
<text text-anchor="middle" x="333" y="-99.8" font-family="Times,serif" font-size="14.00" fill="#000000">AmapMarkerClustererDirective</text>
</g>
<!-- AmapMarkerClustererDirective&#45;&gt;NgxAmapModule -->
<g id="edge6" class="edge">
<title>AmapMarkerClustererDirective&#45;&gt;NgxAmapModule</title>
<path fill="none" stroke="#000000" d="M362.6337,-122.0336C362.6337,-139.0597 362.6337,-162 362.6337,-162 362.6337,-162 621.0954,-162 621.0954,-162"/>
<polygon fill="#000000" stroke="#000000" points="621.0954,-165.5001 631.0954,-162 621.0954,-158.5001 621.0954,-165.5001"/>
</g>
<!-- AmapAutocompleteDirective -->
<g id="node7" class="node">
<title>AmapAutocompleteDirective</title>
<polygon fill="#ffffb3" stroke="#000000" points="217.6078,-122 36.3922,-122 36.3922,-86 217.6078,-86 217.6078,-122"/>
<text text-anchor="middle" x="127" y="-99.8" font-family="Times,serif" font-size="14.00" fill="#000000">AmapAutocompleteDirective</text>
</g>
<!-- AmapAutocompleteDirective&#45;&gt;NgxAmapModule -->
<g id="edge7" class="edge">
<title>AmapAutocompleteDirective&#45;&gt;NgxAmapModule</title>
<path fill="none" stroke="#000000" d="M213.6787,-122.2222C213.6787,-140.8285 213.6787,-167 213.6787,-167 213.6787,-167 621.1159,-167 621.1159,-167"/>
<polygon fill="#000000" stroke="#000000" points="621.116,-170.5001 631.1159,-167 621.1159,-163.5001 621.116,-170.5001"/>
</g>
<!-- NgxAmapComponent  -->
<g id="node9" class="node">
<title>NgxAmapComponent </title>
<polygon fill="#fb8072" stroke="#000000" points="1301.6509,-252 1158.3491,-252 1158.3491,-216 1301.6509,-216 1301.6509,-252"/>
<text text-anchor="middle" x="1230" y="-229.8" font-family="Times,serif" font-size="14.00" fill="#000000">NgxAmapComponent </text>
</g>
<!-- NgxAmapModule&#45;&gt;NgxAmapComponent  -->
<g id="edge8" class="edge">
<title>NgxAmapModule&#45;&gt;NgxAmapComponent </title>
<path fill="none" stroke="#000000" stroke-dasharray="5,2" d="M748.8897,-172C887.6685,-172 1223.625,-172 1223.625,-172 1223.625,-172 1223.625,-205.7333 1223.625,-205.7333"/>
<polygon fill="#000000" stroke="#000000" points="1220.1251,-205.7333 1223.625,-215.7333 1227.1251,-205.7333 1220.1251,-205.7333"/>
</g>
<!-- AmapMarkerDirective  -->
<g id="node10" class="node">
<title>AmapMarkerDirective </title>
<polygon fill="#fb8072" stroke="#000000" points="1140.4896,-252 993.5104,-252 993.5104,-216 1140.4896,-216 1140.4896,-252"/>
<text text-anchor="middle" x="1067" y="-229.8" font-family="Times,serif" font-size="14.00" fill="#000000">AmapMarkerDirective </text>
</g>
<!-- NgxAmapModule&#45;&gt;AmapMarkerDirective  -->
<g id="edge9" class="edge">
<title>NgxAmapModule&#45;&gt;AmapMarkerDirective </title>
<path fill="none" stroke="#000000" stroke-dasharray="5,2" d="M749.2458,-177C848.8889,-177 1039.2517,-177 1039.2517,-177 1039.2517,-177 1039.2517,-205.9648 1039.2517,-205.9648"/>
<polygon fill="#000000" stroke="#000000" points="1035.7518,-205.9648 1039.2517,-215.9648 1042.7518,-205.9649 1035.7518,-205.9648"/>
</g>
<!-- AmapInfoWindowComponent  -->
<g id="node11" class="node">
<title>AmapInfoWindowComponent </title>
<polygon fill="#fb8072" stroke="#000000" points="975.0777,-252 784.9223,-252 784.9223,-216 975.0777,-216 975.0777,-252"/>
<text text-anchor="middle" x="880" y="-229.8" font-family="Times,serif" font-size="14.00" fill="#000000">AmapInfoWindowComponent </text>
</g>
<!-- NgxAmapModule&#45;&gt;AmapInfoWindowComponent  -->
<g id="edge10" class="edge">
<title>NgxAmapModule&#45;&gt;AmapInfoWindowComponent </title>
<path fill="none" stroke="#000000" stroke-dasharray="5,2" d="M749.0981,-182C793.3653,-182 846.3205,-182 846.3205,-182 846.3205,-182 846.3205,-205.8129 846.3205,-205.8129"/>
<polygon fill="#000000" stroke="#000000" points="842.8206,-205.8129 846.3205,-215.8129 849.8206,-205.813 842.8206,-205.8129"/>
</g>
<!-- AmapPolylineDirective  -->
<g id="node12" class="node">
<title>AmapPolylineDirective </title>
<polygon fill="#fb8072" stroke="#000000" points="766.4643,-252 613.5357,-252 613.5357,-216 766.4643,-216 766.4643,-252"/>
<text text-anchor="middle" x="690" y="-229.8" font-family="Times,serif" font-size="14.00" fill="#000000">AmapPolylineDirective </text>
</g>
<!-- NgxAmapModule&#45;&gt;AmapPolylineDirective  -->
<g id="edge11" class="edge">
<title>NgxAmapModule&#45;&gt;AmapPolylineDirective </title>
<path fill="none" stroke="#000000" stroke-dasharray="5,2" d="M690,-187.1061C690,-187.1061 690,-205.991 690,-205.991"/>
<polygon fill="#000000" stroke="#000000" points="686.5001,-205.9909 690,-215.991 693.5001,-205.991 686.5001,-205.9909"/>
</g>
<!-- AmapToolBarDirective  -->
<g id="node13" class="node">
<title>AmapToolBarDirective </title>
<polygon fill="#fb8072" stroke="#000000" points="596.4503,-252 443.5497,-252 443.5497,-216 596.4503,-216 596.4503,-252"/>
<text text-anchor="middle" x="520" y="-229.8" font-family="Times,serif" font-size="14.00" fill="#000000">AmapToolBarDirective </text>
</g>
<!-- NgxAmapModule&#45;&gt;AmapToolBarDirective  -->
<g id="edge12" class="edge">
<title>NgxAmapModule&#45;&gt;AmapToolBarDirective </title>
<path fill="none" stroke="#000000" stroke-dasharray="5,2" d="M631.0147,-182C574.5044,-182 497.7584,-182 497.7584,-182 497.7584,-182 497.7584,-205.8129 497.7584,-205.8129"/>
<polygon fill="#000000" stroke="#000000" points="494.2585,-205.8129 497.7584,-215.8129 501.2585,-205.813 494.2585,-205.8129"/>
</g>
<!-- AmapMarkerClustererDirective  -->
<g id="node14" class="node">
<title>AmapMarkerClustererDirective </title>
<polygon fill="#fb8072" stroke="#000000" points="426.3026,-252 227.6974,-252 227.6974,-216 426.3026,-216 426.3026,-252"/>
<text text-anchor="middle" x="327" y="-229.8" font-family="Times,serif" font-size="14.00" fill="#000000">AmapMarkerClustererDirective </text>
</g>
<!-- NgxAmapModule&#45;&gt;AmapMarkerClustererDirective  -->
<g id="edge13" class="edge">
<title>NgxAmapModule&#45;&gt;AmapMarkerClustererDirective </title>
<path fill="none" stroke="#000000" stroke-dasharray="5,2" d="M631.0575,-177C521.8606,-177 299.1163,-177 299.1163,-177 299.1163,-177 299.1163,-205.9648 299.1163,-205.9648"/>
<polygon fill="#000000" stroke="#000000" points="295.6164,-205.9648 299.1163,-215.9648 302.6164,-205.9649 295.6164,-205.9648"/>
</g>
<!-- AmapAutocompleteDirective  -->
<g id="node15" class="node">
<title>AmapAutocompleteDirective </title>
<polygon fill="#fb8072" stroke="#000000" points="209.6074,-252 24.3926,-252 24.3926,-216 209.6074,-216 209.6074,-252"/>
<text text-anchor="middle" x="117" y="-229.8" font-family="Times,serif" font-size="14.00" fill="#000000">AmapAutocompleteDirective </text>
</g>
<!-- NgxAmapModule&#45;&gt;AmapAutocompleteDirective  -->
<g id="edge14" class="edge">
<title>NgxAmapModule&#45;&gt;AmapAutocompleteDirective </title>
<path fill="none" stroke="#000000" stroke-dasharray="5,2" d="M630.9126,-172C485.6578,-172 122.875,-172 122.875,-172 122.875,-172 122.875,-205.7333 122.875,-205.7333"/>
<polygon fill="#000000" stroke="#000000" points="119.3751,-205.7333 122.875,-215.7333 126.3751,-205.7333 119.3751,-205.7333"/>
</g>
</g>
</svg>
